<?xml version="1.0" encoding="UTF-8" standalone="no"?>
<!DOCTYPE svg PUBLIC "-//W3C//DTD SVG 1.1//EN"
 "http://www.w3.org/Graphics/SVG/1.1/DTD/svg11.dtd">
<!-- Generated by graphviz version 2.47.0 (20210316.0004)
 -->
<!-- Title: dependencies Pages: 1 -->
<svg width="1678pt" height="284pt"
 viewBox="0.00 0.00 1678.00 284.00" xmlns="http://www.w3.org/2000/svg" xmlns:xlink="http://www.w3.org/1999/xlink">
<g id="graph0" class="graph" transform="scale(1 1) rotate(0) translate(4 280)">
<title>dependencies</title>
<polygon fill="white" stroke="transparent" points="-4,4 -4,-280 1674,-280 1674,4 -4,4"/>
<text text-anchor="start" x="814.01" y="-42.4" font-family="Times-12" font-weight="bold" font-size="14.00">Legend</text>
<polygon fill="#ffffb3" stroke="transparent" points="601,-10 601,-30 621,-30 621,-10 601,-10"/>
<text text-anchor="start" x="624.63" y="-15.4" font-family="Times-12" font-size="14.00"> &#160;Declarations</text>
<polygon fill="#8dd3c7" stroke="transparent" points="714,-10 714,-30 734,-30 734,-10 714,-10"/>
<text text-anchor="start" x="737.73" y="-15.4" font-family="Times-12" font-size="14.00"> &#160;Module</text>
<polygon fill="#80b1d3" stroke="transparent" points="800,-10 800,-30 820,-30 820,-10 800,-10"/>
<text text-anchor="start" x="823.78" y="-15.4" font-family="Times-12" font-size="14.00"> &#160;Bootstrap</text>
<polygon fill="#fdb462" stroke="transparent" points="897,-10 897,-30 917,-30 917,-10 897,-10"/>
<text text-anchor="start" x="920.67" y="-15.4" font-family="Times-12" font-size="14.00"> &#160;Providers</text>
<polygon fill="#fb8072" stroke="transparent" points="993,-10 993,-30 1013,-30 1013,-10 993,-10"/>
<text text-anchor="start" x="1016.73" y="-15.4" font-family="Times-12" font-size="14.00"> &#160;Exports</text>
<g id="clust1" class="cluster">
<title>cluster_UserModule</title>
<polygon fill="none" stroke="black" stroke-dasharray="1,5" points="8,-70 8,-268 1662,-268 1662,-70 8,-70"/>
</g>
<g id="clust3" class="cluster">
<title>cluster_UserModule_imports</title>
<polygon fill="none" stroke="black" points="1398,-78 1398,-130 1654,-130 1654,-78 1398,-78"/>
</g>
<g id="clust4" class="cluster">
<title>cluster_UserModule_exports</title>
<polygon fill="none" stroke="black" points="748,-208 748,-260 1017,-260 1017,-208 748,-208"/>
</g>
<g id="clust6" class="cluster">
<title>cluster_UserModule_providers</title>
<polygon fill="none" stroke="black" points="16,-78 16,-130 1390,-130 1390,-78 16,-78"/>
</g>
<!-- CommonModule -->
<g id="node1" class="node">
<title>CommonModule</title>
<polygon fill="#8dd3c7" stroke="black" points="1645.67,-122 1642.67,-126 1621.67,-126 1618.67,-122 1534.33,-122 1534.33,-86 1645.67,-86 1645.67,-122"/>
<text text-anchor="middle" x="1590" y="-99.8" font-family="Times,serif" font-size="14.00">CommonModule</text>
</g>
<!-- UserModule -->
<g id="node3" class="node">
<title>UserModule</title>
<polygon fill="#8dd3c7" stroke="black" points="919.98,-187 916.98,-191 895.98,-191 892.98,-187 834.02,-187 834.02,-151 919.98,-151 919.98,-187"/>
<text text-anchor="middle" x="877" y="-164.8" font-family="Times,serif" font-size="14.00">UserModule</text>
</g>
<!-- CommonModule&#45;&gt;UserModule -->
<g id="edge1" class="edge">
<title>CommonModule&#45;&gt;UserModule</title>
<path fill="none" stroke="black" d="M1590,-122.01C1590,-144.49 1590,-180 1590,-180 1590,-180 930,-180 930,-180"/>
<polygon fill="black" stroke="black" points="930,-176.5 920,-180 930,-183.5 930,-176.5"/>
</g>
<!-- DatabaseModule -->
<g id="node2" class="node">
<title>DatabaseModule</title>
<polygon fill="#8dd3c7" stroke="black" points="1516.35,-122 1513.35,-126 1492.35,-126 1489.35,-122 1405.65,-122 1405.65,-86 1516.35,-86 1516.35,-122"/>
<text text-anchor="middle" x="1461" y="-99.8" font-family="Times,serif" font-size="14.00">DatabaseModule</text>
</g>
<!-- DatabaseModule&#45;&gt;UserModule -->
<g id="edge2" class="edge">
<title>DatabaseModule&#45;&gt;UserModule</title>
<path fill="none" stroke="black" d="M1461,-122.13C1461,-142.57 1461,-173 1461,-173 1461,-173 930.42,-173 930.42,-173"/>
<polygon fill="black" stroke="black" points="930.42,-169.5 920.42,-173 930.42,-176.5 930.42,-169.5"/>
</g>
<!-- FavoriteRepository  -->
<g id="node4" class="node">
<title>FavoriteRepository </title>
<polygon fill="#fb8072" stroke="black" points="1008.59,-252 881.41,-252 881.41,-216 1008.59,-216 1008.59,-252"/>
<text text-anchor="middle" x="945" y="-229.8" font-family="Times,serif" font-size="14.00">FavoriteRepository </text>
</g>
<!-- UserModule&#45;&gt;FavoriteRepository  -->
<g id="edge3" class="edge">
<title>UserModule&#45;&gt;FavoriteRepository </title>
<path fill="none" stroke="black" stroke-dasharray="5,2" d="M900.6,-187.11C900.6,-187.11 900.6,-205.99 900.6,-205.99"/>
<polygon fill="black" stroke="black" points="897.1,-205.99 900.6,-215.99 904.1,-205.99 897.1,-205.99"/>
</g>
<!-- UserRepository  -->
<g id="node5" class="node">
<title>UserRepository </title>
<polygon fill="#fb8072" stroke="black" points="863.86,-252 756.14,-252 756.14,-216 863.86,-216 863.86,-252"/>
<text text-anchor="middle" x="810" y="-229.8" font-family="Times,serif" font-size="14.00">UserRepository </text>
</g>
<!-- UserModule&#45;&gt;UserRepository  -->
<g id="edge4" class="edge">
<title>UserModule&#45;&gt;UserRepository </title>
<path fill="none" stroke="black" stroke-dasharray="5,2" d="M848.85,-187.11C848.85,-187.11 848.85,-205.99 848.85,-205.99"/>
<polygon fill="black" stroke="black" points="845.35,-205.99 848.85,-215.99 852.35,-205.99 845.35,-205.99"/>
</g>
<!-- ChangePasswdUseCase -->
<g id="node6" class="node">
<title>ChangePasswdUseCase</title>
<ellipse fill="#fdb462" stroke="black" cx="1279" cy="-104" rx="103.07" ry="18"/>
<text text-anchor="middle" x="1279" y="-99.8" font-family="Times,serif" font-size="14.00">ChangePasswdUseCase</text>
</g>
<!-- ChangePasswdUseCase&#45;&gt;UserModule -->
<g id="edge5" class="edge">
<title>ChangePasswdUseCase&#45;&gt;UserModule</title>
<path fill="none" stroke="black" d="M1279,-122.27C1279,-140.56 1279,-166 1279,-166 1279,-166 930.02,-166 930.02,-166"/>
<polygon fill="black" stroke="black" points="930.02,-162.5 920.02,-166 930.02,-169.5 930.02,-162.5"/>
</g>
<!-- DeleteUserUseCase -->
<g id="node7" class="node">
<title>DeleteUserUseCase</title>
<ellipse fill="#fdb462" stroke="black" cx="1069" cy="-104" rx="88.49" ry="18"/>
<text text-anchor="middle" x="1069" y="-99.8" font-family="Times,serif" font-size="14.00">DeleteUserUseCase</text>
</g>
<!-- DeleteUserUseCase&#45;&gt;UserModule -->
<g id="edge6" class="edge">
<title>DeleteUserUseCase&#45;&gt;UserModule</title>
<path fill="none" stroke="black" d="M994.77,-113.83C994.77,-129.65 994.77,-159 994.77,-159 994.77,-159 930.19,-159 930.19,-159"/>
<polygon fill="black" stroke="black" points="930.19,-155.5 920.19,-159 930.19,-162.5 930.19,-155.5"/>
</g>
<!-- FavoriteRepository -->
<g id="node8" class="node">
<title>FavoriteRepository</title>
<ellipse fill="#fdb462" stroke="black" cx="877" cy="-104" rx="85.69" ry="18"/>
<text text-anchor="middle" x="877" y="-99.8" font-family="Times,serif" font-size="14.00">FavoriteRepository</text>
</g>
<!-- FavoriteRepository&#45;&gt;UserModule -->
<g id="edge7" class="edge">
<title>FavoriteRepository&#45;&gt;UserModule</title>
<path fill="none" stroke="black" d="M877,-122.11C877,-122.11 877,-140.99 877,-140.99"/>
<polygon fill="black" stroke="black" points="873.5,-140.99 877,-150.99 880.5,-140.99 873.5,-140.99"/>
</g>
<!-- GetFavoritesUseCase -->
<g id="node9" class="node">
<title>GetFavoritesUseCase</title>
<ellipse fill="#fdb462" stroke="black" cx="679" cy="-104" rx="94.9" ry="18"/>
<text text-anchor="middle" x="679" y="-99.8" font-family="Times,serif" font-size="14.00">GetFavoritesUseCase</text>
</g>
<!-- GetFavoritesUseCase&#45;&gt;UserModule -->
<g id="edge8" class="edge">
<title>GetFavoritesUseCase&#45;&gt;UserModule</title>
<path fill="none" stroke="black" d="M765.01,-111.65C765.01,-126.76 765.01,-159 765.01,-159 765.01,-159 824.02,-159 824.02,-159"/>
<polygon fill="black" stroke="black" points="824.02,-162.5 834.02,-159 824.02,-155.5 824.02,-162.5"/>
</g>
<!-- GetUserUseCase -->
<g id="node10" class="node">
<title>GetUserUseCase</title>
<ellipse fill="#fdb462" stroke="black" cx="489" cy="-104" rx="76.98" ry="18"/>
<text text-anchor="middle" x="489" y="-99.8" font-family="Times,serif" font-size="14.00">GetUserUseCase</text>
</g>
<!-- GetUserUseCase&#45;&gt;UserModule -->
<g id="edge9" class="edge">
<title>GetUserUseCase&#45;&gt;UserModule</title>
<path fill="none" stroke="black" d="M489,-122.27C489,-140.56 489,-166 489,-166 489,-166 823.99,-166 823.99,-166"/>
<polygon fill="black" stroke="black" points="823.99,-169.5 833.99,-166 823.99,-162.5 823.99,-169.5"/>
</g>
<!-- ToggleFavoriteUseCase -->
<g id="node11" class="node">
<title>ToggleFavoriteUseCase</title>
<ellipse fill="#fdb462" stroke="black" cx="290" cy="-104" rx="104.21" ry="18"/>
<text text-anchor="middle" x="290" y="-99.8" font-family="Times,serif" font-size="14.00">ToggleFavoriteUseCase</text>
</g>
<!-- ToggleFavoriteUseCase&#45;&gt;UserModule -->
<g id="edge10" class="edge">
<title>ToggleFavoriteUseCase&#45;&gt;UserModule</title>
<path fill="none" stroke="black" d="M290,-122.13C290,-142.57 290,-173 290,-173 290,-173 823.84,-173 823.84,-173"/>
<polygon fill="black" stroke="black" points="823.84,-176.5 833.84,-173 823.84,-169.5 823.84,-176.5"/>
</g>
<!-- UserRepository -->
<g id="node12" class="node">
<title>UserRepository</title>
<ellipse fill="#fdb462" stroke="black" cx="96" cy="-104" rx="71.79" ry="18"/>
<text text-anchor="middle" x="96" y="-99.8" font-family="Times,serif" font-size="14.00">UserRepository</text>
</g>
<!-- UserRepository&#45;&gt;UserModule -->
<g id="edge11" class="edge">
<title>UserRepository&#45;&gt;UserModule</title>
<path fill="none" stroke="black" d="M96,-122.01C96,-144.49 96,-180 96,-180 96,-180 823.9,-180 823.9,-180"/>
<polygon fill="black" stroke="black" points="823.9,-183.5 833.9,-180 823.9,-176.5 823.9,-183.5"/>
</g>
</g>
</svg>
