<?xml version="1.0" encoding="UTF-8" standalone="no"?>
<!DOCTYPE svg PUBLIC "-//W3C//DTD SVG 1.1//EN"
 "http://www.w3.org/Graphics/SVG/1.1/DTD/svg11.dtd">
<!-- Generated by graphviz version 2.47.0 (20210316.0004)
 -->
<!-- Title: dependencies Pages: 1 -->
<svg width="1192pt" height="211pt"
 viewBox="0.00 0.00 1192.00 211.00" xmlns="http://www.w3.org/2000/svg" xmlns:xlink="http://www.w3.org/1999/xlink">
<g id="graph0" class="graph" transform="scale(1 1) rotate(0) translate(4 207)">
<title>dependencies</title>
<polygon fill="white" stroke="transparent" points="-4,4 -4,-207 1188,-207 1188,4 -4,4"/>
<text text-anchor="start" x="571.01" y="-42.4" font-family="Times-12" font-weight="bold" font-size="14.00">Legend</text>
<polygon fill="#ffffb3" stroke="transparent" points="358,-10 358,-30 378,-30 378,-10 358,-10"/>
<text text-anchor="start" x="381.63" y="-15.4" font-family="Times-12" font-size="14.00"> &#160;Declarations</text>
<polygon fill="#8dd3c7" stroke="transparent" points="471,-10 471,-30 491,-30 491,-10 471,-10"/>
<text text-anchor="start" x="494.73" y="-15.4" font-family="Times-12" font-size="14.00"> &#160;Module</text>
<polygon fill="#80b1d3" stroke="transparent" points="557,-10 557,-30 577,-30 577,-10 557,-10"/>
<text text-anchor="start" x="580.78" y="-15.4" font-family="Times-12" font-size="14.00"> &#160;Bootstrap</text>
<polygon fill="#fdb462" stroke="transparent" points="654,-10 654,-30 674,-30 674,-10 654,-10"/>
<text text-anchor="start" x="677.67" y="-15.4" font-family="Times-12" font-size="14.00"> &#160;Providers</text>
<polygon fill="#fb8072" stroke="transparent" points="750,-10 750,-30 770,-30 770,-10 750,-10"/>
<text text-anchor="start" x="773.73" y="-15.4" font-family="Times-12" font-size="14.00"> &#160;Exports</text>
<g id="clust1" class="cluster">
<title>cluster_AuthModule</title>
<polygon fill="none" stroke="black" stroke-dasharray="1,5" points="8,-70 8,-195 1176,-195 1176,-70 8,-70"/>
</g>
<g id="clust3" class="cluster">
<title>cluster_AuthModule_imports</title>
<polygon fill="none" stroke="black" points="936,-78 936,-130 1168,-130 1168,-78 936,-78"/>
</g>
<g id="clust6" class="cluster">
<title>cluster_AuthModule_providers</title>
<polygon fill="none" stroke="black" points="16,-78 16,-130 928,-130 928,-78 16,-78"/>
</g>
<!-- CommonModule -->
<g id="node1" class="node">
<title>CommonModule</title>
<polygon fill="#8dd3c7" stroke="black" points="1159.67,-122 1156.67,-126 1135.67,-126 1132.67,-122 1048.33,-122 1048.33,-86 1159.67,-86 1159.67,-122"/>
<text text-anchor="middle" x="1104" y="-99.8" font-family="Times,serif" font-size="14.00">CommonModule</text>
</g>
<!-- AuthModule -->
<g id="node3" class="node">
<title>AuthModule</title>
<polygon fill="#8dd3c7" stroke="black" points="726.55,-187 723.55,-191 702.55,-191 699.55,-187 639.45,-187 639.45,-151 726.55,-151 726.55,-187"/>
<text text-anchor="middle" x="683" y="-164.8" font-family="Times,serif" font-size="14.00">AuthModule</text>
</g>
<!-- CommonModule&#45;&gt;AuthModule -->
<g id="edge1" class="edge">
<title>CommonModule&#45;&gt;AuthModule</title>
<path fill="none" stroke="black" d="M1104,-122.29C1104,-144.21 1104,-178 1104,-178 1104,-178 736.86,-178 736.86,-178"/>
<polygon fill="black" stroke="black" points="736.86,-174.5 726.86,-178 736.86,-181.5 736.86,-174.5"/>
</g>
<!-- UserModule -->
<g id="node2" class="node">
<title>UserModule</title>
<polygon fill="#8dd3c7" stroke="black" points="1029.98,-122 1026.98,-126 1005.98,-126 1002.98,-122 944.02,-122 944.02,-86 1029.98,-86 1029.98,-122"/>
<text text-anchor="middle" x="987" y="-99.8" font-family="Times,serif" font-size="14.00">UserModule</text>
</g>
<!-- UserModule&#45;&gt;AuthModule -->
<g id="edge2" class="edge">
<title>UserModule&#45;&gt;AuthModule</title>
<path fill="none" stroke="black" d="M987,-122.11C987,-141.34 987,-169 987,-169 987,-169 736.56,-169 736.56,-169"/>
<polygon fill="black" stroke="black" points="736.56,-165.5 726.56,-169 736.56,-172.5 736.56,-165.5"/>
</g>
<!-- AuthServices -->
<g id="node4" class="node">
<title>AuthServices</title>
<ellipse fill="#fdb462" stroke="black" cx="857" cy="-104" rx="63.12" ry="18"/>
<text text-anchor="middle" x="857" y="-99.8" font-family="Times,serif" font-size="14.00">AuthServices</text>
</g>
<!-- AuthServices&#45;&gt;AuthModule -->
<g id="edge3" class="edge">
<title>AuthServices&#45;&gt;AuthModule</title>
<path fill="none" stroke="black" d="M857,-122.03C857,-138.4 857,-160 857,-160 857,-160 736.91,-160 736.91,-160"/>
<polygon fill="black" stroke="black" points="736.91,-156.5 726.91,-160 736.91,-163.5 736.91,-156.5"/>
</g>
<!-- EmailVerifyUseCase -->
<g id="node5" class="node">
<title>EmailVerifyUseCase</title>
<ellipse fill="#fdb462" stroke="black" cx="683" cy="-104" rx="93.17" ry="18"/>
<text text-anchor="middle" x="683" y="-99.8" font-family="Times,serif" font-size="14.00">EmailVerifyUseCase</text>
</g>
<!-- EmailVerifyUseCase&#45;&gt;AuthModule -->
<g id="edge4" class="edge">
<title>EmailVerifyUseCase&#45;&gt;AuthModule</title>
<path fill="none" stroke="black" d="M683,-122.11C683,-122.11 683,-140.99 683,-140.99"/>
<polygon fill="black" stroke="black" points="679.5,-140.99 683,-150.99 686.5,-140.99 679.5,-140.99"/>
</g>
<!-- LoginUseCase -->
<g id="node6" class="node">
<title>LoginUseCase</title>
<ellipse fill="#fdb462" stroke="black" cx="504" cy="-104" rx="67.78" ry="18"/>
<text text-anchor="middle" x="504" y="-99.8" font-family="Times,serif" font-size="14.00">LoginUseCase</text>
</g>
<!-- LoginUseCase&#45;&gt;AuthModule -->
<g id="edge5" class="edge">
<title>LoginUseCase&#45;&gt;AuthModule</title>
<path fill="none" stroke="black" d="M504,-122.03C504,-138.4 504,-160 504,-160 504,-160 629.21,-160 629.21,-160"/>
<polygon fill="black" stroke="black" points="629.21,-163.5 639.21,-160 629.21,-156.5 629.21,-163.5"/>
</g>
<!-- PasswdRecoveryUseCase -->
<g id="node7" class="node">
<title>PasswdRecoveryUseCase</title>
<ellipse fill="#fdb462" stroke="black" cx="307" cy="-104" rx="110.57" ry="18"/>
<text text-anchor="middle" x="307" y="-99.8" font-family="Times,serif" font-size="14.00">PasswdRecoveryUseCase</text>
</g>
<!-- PasswdRecoveryUseCase&#45;&gt;AuthModule -->
<g id="edge6" class="edge">
<title>PasswdRecoveryUseCase&#45;&gt;AuthModule</title>
<path fill="none" stroke="black" d="M307,-122.11C307,-141.34 307,-169 307,-169 307,-169 629.13,-169 629.13,-169"/>
<polygon fill="black" stroke="black" points="629.13,-172.5 639.13,-169 629.13,-165.5 629.13,-172.5"/>
</g>
<!-- RegisterUseCase -->
<g id="node8" class="node">
<title>RegisterUseCase</title>
<ellipse fill="#fdb462" stroke="black" cx="101" cy="-104" rx="77" ry="18"/>
<text text-anchor="middle" x="101" y="-99.8" font-family="Times,serif" font-size="14.00">RegisterUseCase</text>
</g>
<!-- RegisterUseCase&#45;&gt;AuthModule -->
<g id="edge7" class="edge">
<title>RegisterUseCase&#45;&gt;AuthModule</title>
<path fill="none" stroke="black" d="M101,-122.29C101,-144.21 101,-178 101,-178 101,-178 629.26,-178 629.26,-178"/>
<polygon fill="black" stroke="black" points="629.26,-181.5 639.26,-178 629.26,-174.5 629.26,-181.5"/>
</g>
</g>
</svg>
