<?xml version="1.0" encoding="UTF-8" standalone="no"?>
<!DOCTYPE svg PUBLIC "-//W3C//DTD SVG 1.1//EN"
 "http://www.w3.org/Graphics/SVG/1.1/DTD/svg11.dtd">
<!-- Generated by graphviz version 2.47.0 (20210316.0004)
 -->
<!-- Title: dependencies Pages: 1 -->
<svg width="4960pt" height="428pt"
 viewBox="0.00 0.00 4960.00 428.00" xmlns="http://www.w3.org/2000/svg" xmlns:xlink="http://www.w3.org/1999/xlink">
<g id="graph0" class="graph" transform="scale(1 1) rotate(0) translate(4 424)">
<title>dependencies</title>
<polygon fill="white" stroke="transparent" points="-4,4 -4,-424 4956,-424 4956,4 -4,4"/>
<text text-anchor="start" x="2455.01" y="-42.4" font-family="Times-12" font-weight="bold" font-size="14.00">Legend</text>
<polygon fill="#ffffb3" stroke="transparent" points="2242,-10 2242,-30 2262,-30 2262,-10 2242,-10"/>
<text text-anchor="start" x="2265.63" y="-15.4" font-family="Times-12" font-size="14.00"> &#160;Declarations</text>
<polygon fill="#8dd3c7" stroke="transparent" points="2355,-10 2355,-30 2375,-30 2375,-10 2355,-10"/>
<text text-anchor="start" x="2378.73" y="-15.4" font-family="Times-12" font-size="14.00"> &#160;Module</text>
<polygon fill="#80b1d3" stroke="transparent" points="2441,-10 2441,-30 2461,-30 2461,-10 2441,-10"/>
<text text-anchor="start" x="2464.78" y="-15.4" font-family="Times-12" font-size="14.00"> &#160;Bootstrap</text>
<polygon fill="#fdb462" stroke="transparent" points="2538,-10 2538,-30 2558,-30 2558,-10 2538,-10"/>
<text text-anchor="start" x="2561.67" y="-15.4" font-family="Times-12" font-size="14.00"> &#160;Providers</text>
<polygon fill="#fb8072" stroke="transparent" points="2634,-10 2634,-30 2654,-30 2654,-10 2634,-10"/>
<text text-anchor="start" x="2657.73" y="-15.4" font-family="Times-12" font-size="14.00"> &#160;Exports</text>
<g id="clust1" class="cluster">
<title>cluster_AppModule</title>
<polygon fill="none" stroke="black" stroke-dasharray="1,5" points="8,-70 8,-412 687,-412 687,-70 8,-70"/>
</g>
<g id="clust3" class="cluster">
<title>cluster_AppModule_imports</title>
<polygon fill="none" stroke="black" points="451,-78 451,-274 679,-274 679,-78 451,-78"/>
</g>
<g id="clust4" class="cluster">
<title>cluster_AppModule_exports</title>
<polygon fill="none" stroke="black" points="383,-352 383,-404 559,-404 559,-352 383,-352"/>
</g>
<g id="clust6" class="cluster">
<title>cluster_AppModule_providers</title>
<polygon fill="none" stroke="black" points="16,-222 16,-274 443,-274 443,-222 16,-222"/>
</g>
<g id="clust7" class="cluster">
<title>cluster_AuthModule</title>
<polygon fill="none" stroke="black" stroke-dasharray="1,5" points="3880,-70 3880,-138 4944,-138 4944,-70 3880,-70"/>
</g>
<g id="clust9" class="cluster">
<title>cluster_AuthModule_imports</title>
<polygon fill="none" stroke="black" points="3888,-78 3888,-130 4016,-130 4016,-78 3888,-78"/>
</g>
<g id="clust12" class="cluster">
<title>cluster_AuthModule_providers</title>
<polygon fill="none" stroke="black" points="4024,-78 4024,-130 4936,-130 4936,-78 4024,-78"/>
</g>
<g id="clust13" class="cluster">
<title>cluster_CommonModule</title>
<polygon fill="none" stroke="black" stroke-dasharray="1,5" points="3705,-146 3705,-214 4041,-214 4041,-146 3705,-146"/>
</g>
<g id="clust16" class="cluster">
<title>cluster_CommonModule_exports</title>
<polygon fill="none" stroke="black" points="3897,-154 3897,-206 4033,-206 4033,-154 3897,-154"/>
</g>
<g id="clust18" class="cluster">
<title>cluster_CommonModule_providers</title>
<polygon fill="none" stroke="black" points="3713,-154 3713,-206 3889,-206 3889,-154 3713,-154"/>
</g>
<g id="clust25" class="cluster">
<title>cluster_ProductsModule</title>
<polygon fill="none" stroke="black" stroke-dasharray="1,5" points="3289,-70 3289,-138 3872,-138 3872,-70 3289,-70"/>
</g>
<g id="clust30" class="cluster">
<title>cluster_ProductsModule_providers</title>
<polygon fill="none" stroke="black" points="3297,-78 3297,-130 3864,-130 3864,-78 3297,-78"/>
</g>
<g id="clust31" class="cluster">
<title>cluster_UserModule</title>
<polygon fill="none" stroke="black" stroke-dasharray="1,5" points="695,-70 695,-138 3281,-138 3281,-70 695,-70"/>
</g>
<g id="clust34" class="cluster">
<title>cluster_UserModule_exports</title>
<polygon fill="none" stroke="black" points="2828,-78 2828,-130 3273,-130 3273,-78 2828,-78"/>
</g>
<g id="clust36" class="cluster">
<title>cluster_UserModule_providers</title>
<polygon fill="none" stroke="black" points="703,-78 703,-130 2820,-130 2820,-78 703,-78"/>
</g>
<!-- AuthModule -->
<g id="node1" class="node">
<title>AuthModule</title>
<polygon fill="#8dd3c7" stroke="black" points="670.55,-266 667.55,-270 646.55,-270 643.55,-266 583.45,-266 583.45,-230 670.55,-230 670.55,-266"/>
<text text-anchor="middle" x="627" y="-243.8" font-family="Times,serif" font-size="14.00">AuthModule</text>
</g>
<!-- AppModule -->
<g id="node5" class="node">
<title>AppModule</title>
<polygon fill="#8dd3c7" stroke="black" points="512.66,-331 509.66,-335 488.66,-335 485.66,-331 429.34,-331 429.34,-295 512.66,-295 512.66,-331"/>
<text text-anchor="middle" x="471" y="-308.8" font-family="Times,serif" font-size="14.00">AppModule</text>
</g>
<!-- AuthModule&#45;&gt;AppModule -->
<g id="edge1" class="edge">
<title>AuthModule&#45;&gt;AppModule</title>
<path fill="none" stroke="black" d="M583.38,-257C544.9,-257 494.89,-257 494.89,-257 494.89,-257 494.89,-284.97 494.89,-284.97"/>
<polygon fill="black" stroke="black" points="491.39,-284.97 494.89,-294.97 498.39,-284.97 491.39,-284.97"/>
</g>
<!-- DatabaseModule -->
<g id="node2" class="node">
<title>DatabaseModule</title>
<polygon fill="#8dd3c7" stroke="black" points="569.35,-122 566.35,-126 545.35,-126 542.35,-122 458.65,-122 458.65,-86 569.35,-86 569.35,-122"/>
<text text-anchor="middle" x="514" y="-99.8" font-family="Times,serif" font-size="14.00">DatabaseModule</text>
</g>
<!-- ProductsModule -->
<g id="node3" class="node">
<title>ProductsModule</title>
<polygon fill="#8dd3c7" stroke="black" points="671.04,-198 668.04,-202 647.04,-202 644.04,-198 562.96,-198 562.96,-162 671.04,-162 671.04,-198"/>
<text text-anchor="middle" x="617" y="-175.8" font-family="Times,serif" font-size="14.00">ProductsModule</text>
</g>
<!-- DatabaseModule&#45;&gt;ProductsModule -->
<g id="edge17" class="edge">
<title>DatabaseModule&#45;&gt;ProductsModule</title>
<path fill="none" stroke="black" d="M556.73,-122.01C556.73,-144.49 556.73,-180 556.73,-180 556.73,-180 557.33,-180 557.33,-180"/>
<polygon fill="black" stroke="black" points="552.73,-183.5 562.73,-180 552.73,-176.5 552.73,-183.5"/>
</g>
<!-- UserModule -->
<g id="node4" class="node">
<title>UserModule</title>
<polygon fill="#8dd3c7" stroke="black" points="544.98,-198 541.98,-202 520.98,-202 517.98,-198 459.02,-198 459.02,-162 544.98,-162 544.98,-198"/>
<text text-anchor="middle" x="502" y="-175.8" font-family="Times,serif" font-size="14.00">UserModule</text>
</g>
<!-- DatabaseModule&#45;&gt;UserModule -->
<g id="edge22" class="edge">
<title>DatabaseModule&#45;&gt;UserModule</title>
<path fill="none" stroke="black" d="M464.39,-122.01C464.39,-122.01 464.39,-151.85 464.39,-151.85"/>
<polygon fill="black" stroke="black" points="460.89,-151.85 464.39,-161.85 467.89,-151.85 460.89,-151.85"/>
</g>
<!-- DatabaseModule&#45;&gt;AppModule -->
<g id="edge2" class="edge">
<title>DatabaseModule&#45;&gt;AppModule</title>
<path fill="none" stroke="black" d="M458.61,-104C453.72,-104 450.58,-104 450.58,-104 450.58,-104 450.58,-284.82 450.58,-284.82"/>
<polygon fill="black" stroke="black" points="447.08,-284.82 450.58,-294.82 454.08,-284.82 447.08,-284.82"/>
</g>
<!-- ProductsModule&#45;&gt;AppModule -->
<g id="edge3" class="edge">
<title>ProductsModule&#45;&gt;AppModule</title>
<path fill="none" stroke="black" d="M572.98,-198.21C572.98,-234.64 572.98,-313 572.98,-313 572.98,-313 522.77,-313 522.77,-313"/>
<polygon fill="black" stroke="black" points="522.77,-309.5 512.77,-313 522.77,-316.5 522.77,-309.5"/>
</g>
<!-- UserModule&#45;&gt;AuthModule -->
<g id="edge9" class="edge">
<title>UserModule&#45;&gt;AuthModule</title>
<path fill="none" stroke="black" d="M528.91,-198.22C528.91,-218.37 528.91,-248 528.91,-248 528.91,-248 573.4,-248 573.4,-248"/>
<polygon fill="black" stroke="black" points="573.4,-251.5 583.4,-248 573.4,-244.5 573.4,-251.5"/>
</g>
<!-- UserModule&#45;&gt;AppModule -->
<g id="edge4" class="edge">
<title>UserModule&#45;&gt;AppModule</title>
<path fill="none" stroke="black" d="M476.95,-198.21C476.95,-198.21 476.95,-284.58 476.95,-284.58"/>
<polygon fill="black" stroke="black" points="473.45,-284.58 476.95,-294.58 480.45,-284.58 473.45,-284.58"/>
</g>
<!-- FavoriteRepository  -->
<g id="node20" class="node">
<title>FavoriteRepository </title>
<polygon fill="#fb8072" stroke="black" points="3139.59,-122 3012.41,-122 3012.41,-86 3139.59,-86 3139.59,-122"/>
<text text-anchor="middle" x="3076" y="-99.8" font-family="Times,serif" font-size="14.00">FavoriteRepository </text>
</g>
<!-- UserModule&#45;&gt;FavoriteRepository  -->
<g id="edge23" class="edge">
<title>UserModule&#45;&gt;FavoriteRepository </title>
<path fill="none" stroke="black" stroke-dasharray="5,2" d="M475.13,-161.94C475.13,-157.51 475.13,-154 475.13,-154 475.13,-154 3076,-154 3076,-154 3076,-154 3076,-132.05 3076,-132.05"/>
<polygon fill="black" stroke="black" points="3079.5,-132.05 3076,-122.05 3072.5,-132.05 3079.5,-132.05"/>
</g>
<!-- ShoppingCartRepository  -->
<g id="node21" class="node">
<title>ShoppingCartRepository </title>
<polygon fill="#fb8072" stroke="black" points="2994.21,-122 2835.79,-122 2835.79,-86 2994.21,-86 2994.21,-122"/>
<text text-anchor="middle" x="2915" y="-99.8" font-family="Times,serif" font-size="14.00">ShoppingCartRepository </text>
</g>
<!-- UserModule&#45;&gt;ShoppingCartRepository  -->
<g id="edge24" class="edge">
<title>UserModule&#45;&gt;ShoppingCartRepository </title>
<path fill="none" stroke="black" stroke-dasharray="5,2" d="M469.76,-161.79C469.76,-156.45 469.76,-152 469.76,-152 469.76,-152 2915,-152 2915,-152 2915,-152 2915,-132.15 2915,-132.15"/>
<polygon fill="black" stroke="black" points="2918.5,-132.15 2915,-122.15 2911.5,-132.15 2918.5,-132.15"/>
</g>
<!-- UserRepository  -->
<g id="node22" class="node">
<title>UserRepository </title>
<polygon fill="#fb8072" stroke="black" points="3264.86,-122 3157.14,-122 3157.14,-86 3264.86,-86 3264.86,-122"/>
<text text-anchor="middle" x="3211" y="-99.8" font-family="Times,serif" font-size="14.00">UserRepository </text>
</g>
<!-- UserModule&#45;&gt;UserRepository  -->
<g id="edge25" class="edge">
<title>UserModule&#45;&gt;UserRepository </title>
<path fill="none" stroke="black" stroke-dasharray="5,2" d="M480.51,-161.88C480.51,-159.03 480.51,-157 480.51,-157 480.51,-157 3211,-157 3211,-157 3211,-157 3211,-132.24 3211,-132.24"/>
<polygon fill="black" stroke="black" points="3214.5,-132.24 3211,-122.24 3207.5,-132.24 3214.5,-132.24"/>
</g>
<!-- PopulateProductsService  -->
<g id="node6" class="node">
<title>PopulateProductsService </title>
<polygon fill="#fb8072" stroke="black" points="550.96,-396 391.04,-396 391.04,-360 550.96,-360 550.96,-396"/>
<text text-anchor="middle" x="471" y="-373.8" font-family="Times,serif" font-size="14.00">PopulateProductsService </text>
</g>
<!-- AppModule&#45;&gt;PopulateProductsService  -->
<g id="edge5" class="edge">
<title>AppModule&#45;&gt;PopulateProductsService </title>
<path fill="none" stroke="black" stroke-dasharray="5,2" d="M471,-331.11C471,-331.11 471,-349.99 471,-349.99"/>
<polygon fill="black" stroke="black" points="467.5,-349.99 471,-359.99 474.5,-349.99 467.5,-349.99"/>
</g>
<!-- PopulateProductsService -->
<g id="node7" class="node">
<title>PopulateProductsService</title>
<ellipse fill="#fdb462" stroke="black" cx="327" cy="-248" rx="107.66" ry="18"/>
<text text-anchor="middle" x="327" y="-243.8" font-family="Times,serif" font-size="14.00">PopulateProductsService</text>
</g>
<!-- PopulateProductsService&#45;&gt;AppModule -->
<g id="edge6" class="edge">
<title>PopulateProductsService&#45;&gt;AppModule</title>
<path fill="none" stroke="black" d="M420.29,-239C433.44,-239 442.58,-239 442.58,-239 442.58,-239 442.58,-284.71 442.58,-284.71"/>
<polygon fill="black" stroke="black" points="439.08,-284.71 442.58,-294.71 446.08,-284.71 439.08,-284.71"/>
</g>
<!-- RmUnverifiedUsers -->
<g id="node8" class="node">
<title>RmUnverifiedUsers</title>
<ellipse fill="#fdb462" stroke="black" cx="113" cy="-248" rx="88.6" ry="18"/>
<text text-anchor="middle" x="113" y="-243.8" font-family="Times,serif" font-size="14.00">RmUnverifiedUsers</text>
</g>
<!-- RmUnverifiedUsers&#45;&gt;AppModule -->
<g id="edge7" class="edge">
<title>RmUnverifiedUsers&#45;&gt;AppModule</title>
<path fill="none" stroke="black" d="M113,-266.11C113,-285.34 113,-313 113,-313 113,-313 419.23,-313 419.23,-313"/>
<polygon fill="black" stroke="black" points="419.23,-316.5 429.23,-313 419.23,-309.5 419.23,-316.5"/>
</g>
<!-- CommonModule -->
<g id="node9" class="node">
<title>CommonModule</title>
<polygon fill="#8dd3c7" stroke="black" points="4007.67,-122 4004.67,-126 3983.67,-126 3980.67,-122 3896.33,-122 3896.33,-86 4007.67,-86 4007.67,-122"/>
<text text-anchor="middle" x="3952" y="-99.8" font-family="Times,serif" font-size="14.00">CommonModule</text>
</g>
<!-- CommonModule&#45;&gt;AuthModule -->
<g id="edge8" class="edge">
<title>CommonModule&#45;&gt;AuthModule</title>
<path fill="none" stroke="black" d="M3903.15,-122.08C3903.15,-158.23 3903.15,-236 3903.15,-236 3903.15,-236 680.84,-236 680.84,-236"/>
<polygon fill="black" stroke="black" points="680.84,-232.5 670.84,-236 680.84,-239.5 680.84,-232.5"/>
</g>
<!-- CommonModule&#45;&gt;UserModule -->
<g id="edge21" class="edge">
<title>CommonModule&#45;&gt;UserModule</title>
<path fill="none" stroke="black" d="M3898.49,-122.03C3898.49,-138.4 3898.49,-160 3898.49,-160 3898.49,-160 539.61,-160 539.61,-160 539.61,-160 539.61,-160.18 539.61,-160.18"/>
<polygon fill="black" stroke="black" points="536.12,-151.85 539.61,-161.85 543.12,-151.85 536.12,-151.85"/>
</g>
<!-- CommonServices  -->
<g id="node15" class="node">
<title>CommonServices </title>
<polygon fill="#fb8072" stroke="black" points="4024.54,-198 3905.46,-198 3905.46,-162 4024.54,-162 4024.54,-198"/>
<text text-anchor="middle" x="3965" y="-175.8" font-family="Times,serif" font-size="14.00">CommonServices </text>
</g>
<!-- CommonModule&#45;&gt;CommonServices  -->
<g id="edge15" class="edge">
<title>CommonModule&#45;&gt;CommonServices </title>
<path fill="none" stroke="black" stroke-dasharray="5,2" d="M3956.66,-122.01C3956.66,-122.01 3956.66,-151.85 3956.66,-151.85"/>
<polygon fill="black" stroke="black" points="3953.16,-151.85 3956.66,-161.85 3960.16,-151.85 3953.16,-151.85"/>
</g>
<!-- AuthServices -->
<g id="node10" class="node">
<title>AuthServices</title>
<ellipse fill="#fdb462" stroke="black" cx="4661" cy="-104" rx="63.12" ry="18"/>
<text text-anchor="middle" x="4661" y="-99.8" font-family="Times,serif" font-size="14.00">AuthServices</text>
</g>
<!-- AuthServices&#45;&gt;AuthModule -->
<g id="edge10" class="edge">
<title>AuthServices&#45;&gt;AuthModule</title>
<path fill="none" stroke="black" d="M4661,-122.03C4661,-162.3 4661,-256 4661,-256 4661,-256 680.59,-256 680.59,-256"/>
<polygon fill="black" stroke="black" points="680.59,-252.5 670.59,-256 680.59,-259.5 680.59,-252.5"/>
</g>
<!-- EmailVerifyUseCase -->
<g id="node11" class="node">
<title>EmailVerifyUseCase</title>
<ellipse fill="#fdb462" stroke="black" cx="4835" cy="-104" rx="93.17" ry="18"/>
<text text-anchor="middle" x="4835" y="-99.8" font-family="Times,serif" font-size="14.00">EmailVerifyUseCase</text>
</g>
<!-- EmailVerifyUseCase&#45;&gt;AuthModule -->
<g id="edge11" class="edge">
<title>EmailVerifyUseCase&#45;&gt;AuthModule</title>
<path fill="none" stroke="black" d="M4835,-122.01C4835,-163.25 4835,-261 4835,-261 4835,-261 680.71,-261 680.71,-261"/>
<polygon fill="black" stroke="black" points="680.71,-257.5 670.71,-261 680.71,-264.5 680.71,-257.5"/>
</g>
<!-- LoginUseCase -->
<g id="node12" class="node">
<title>LoginUseCase</title>
<ellipse fill="#fdb462" stroke="black" cx="4100" cy="-104" rx="67.78" ry="18"/>
<text text-anchor="middle" x="4100" y="-99.8" font-family="Times,serif" font-size="14.00">LoginUseCase</text>
</g>
<!-- LoginUseCase&#45;&gt;AuthModule -->
<g id="edge12" class="edge">
<title>LoginUseCase&#45;&gt;AuthModule</title>
<path fill="none" stroke="black" d="M4100,-122.19C4100,-159.46 4100,-241 4100,-241 4100,-241 680.6,-241 680.6,-241"/>
<polygon fill="black" stroke="black" points="680.6,-237.5 670.6,-241 680.6,-244.5 680.6,-237.5"/>
</g>
<!-- PasswdRecoveryUseCase -->
<g id="node13" class="node">
<title>PasswdRecoveryUseCase</title>
<ellipse fill="#fdb462" stroke="black" cx="4297" cy="-104" rx="110.57" ry="18"/>
<text text-anchor="middle" x="4297" y="-99.8" font-family="Times,serif" font-size="14.00">PasswdRecoveryUseCase</text>
</g>
<!-- PasswdRecoveryUseCase&#45;&gt;AuthModule -->
<g id="edge13" class="edge">
<title>PasswdRecoveryUseCase&#45;&gt;AuthModule</title>
<path fill="none" stroke="black" d="M4297,-122.27C4297,-160.63 4297,-246 4297,-246 4297,-246 680.77,-246 680.77,-246"/>
<polygon fill="black" stroke="black" points="680.77,-242.5 670.77,-246 680.77,-249.5 680.77,-242.5"/>
</g>
<!-- RegisterUseCase -->
<g id="node14" class="node">
<title>RegisterUseCase</title>
<ellipse fill="#fdb462" stroke="black" cx="4503" cy="-104" rx="77" ry="18"/>
<text text-anchor="middle" x="4503" y="-99.8" font-family="Times,serif" font-size="14.00">RegisterUseCase</text>
</g>
<!-- RegisterUseCase&#45;&gt;AuthModule -->
<g id="edge14" class="edge">
<title>RegisterUseCase&#45;&gt;AuthModule</title>
<path fill="none" stroke="black" d="M4503,-122.03C4503,-161.28 4503,-251 4503,-251 4503,-251 680.86,-251 680.86,-251"/>
<polygon fill="black" stroke="black" points="680.86,-247.5 670.86,-251 680.86,-254.5 680.86,-247.5"/>
</g>
<!-- CommonServices -->
<g id="node16" class="node">
<title>CommonServices</title>
<ellipse fill="#fdb462" stroke="black" cx="3801" cy="-180" rx="79.9" ry="18"/>
<text text-anchor="middle" x="3801" y="-175.8" font-family="Times,serif" font-size="14.00">CommonServices</text>
</g>
<!-- CommonServices&#45;&gt;CommonModule -->
<g id="edge16" class="edge">
<title>CommonServices&#45;&gt;CommonModule</title>
<path fill="none" stroke="black" d="M3881.1,-180C3892.71,-180 3900.82,-180 3900.82,-180 3900.82,-180 3900.82,-132.01 3900.82,-132.01"/>
<polygon fill="black" stroke="black" points="3904.32,-132.01 3900.82,-122.01 3897.32,-132.01 3904.32,-132.01"/>
</g>
<!-- GetProductsUseCase -->
<g id="node17" class="node">
<title>GetProductsUseCase</title>
<ellipse fill="#fdb462" stroke="black" cx="3590" cy="-104" rx="92.61" ry="18"/>
<text text-anchor="middle" x="3590" y="-99.8" font-family="Times,serif" font-size="14.00">GetProductsUseCase</text>
</g>
<!-- GetProductsUseCase&#45;&gt;ProductsModule -->
<g id="edge18" class="edge">
<title>GetProductsUseCase&#45;&gt;ProductsModule</title>
<path fill="none" stroke="black" d="M3590,-122.01C3590,-144.49 3590,-180 3590,-180 3590,-180 681.14,-180 681.14,-180"/>
<polygon fill="black" stroke="black" points="681.14,-176.5 671.14,-180 681.14,-183.5 681.14,-176.5"/>
</g>
<!-- ProductsRepository -->
<g id="node18" class="node">
<title>ProductsRepository</title>
<ellipse fill="#fdb462" stroke="black" cx="3392" cy="-104" rx="87.42" ry="18"/>
<text text-anchor="middle" x="3392" y="-99.8" font-family="Times,serif" font-size="14.00">ProductsRepository</text>
</g>
<!-- ProductsRepository&#45;&gt;ProductsModule -->
<g id="edge19" class="edge">
<title>ProductsRepository&#45;&gt;ProductsModule</title>
<path fill="none" stroke="black" d="M3392,-122.31C3392,-142.15 3392,-171 3392,-171 3392,-171 681.19,-171 681.19,-171"/>
<polygon fill="black" stroke="black" points="681.19,-167.5 671.19,-171 681.19,-174.5 681.19,-167.5"/>
</g>
<!-- ProductsServices -->
<g id="node19" class="node">
<title>ProductsServices</title>
<ellipse fill="#fdb462" stroke="black" cx="3778" cy="-104" rx="77.58" ry="18"/>
<text text-anchor="middle" x="3778" y="-99.8" font-family="Times,serif" font-size="14.00">ProductsServices</text>
</g>
<!-- ProductsServices&#45;&gt;ProductsModule -->
<g id="edge20" class="edge">
<title>ProductsServices&#45;&gt;ProductsModule</title>
<path fill="none" stroke="black" d="M3710.88,-113.1C3710.88,-135.02 3710.88,-189 3710.88,-189 3710.88,-189 681.35,-189 681.35,-189"/>
<polygon fill="black" stroke="black" points="681.35,-185.5 671.35,-189 681.35,-192.5 681.35,-185.5"/>
</g>
<!-- ChangePasswdUseCase -->
<g id="node23" class="node">
<title>ChangePasswdUseCase</title>
<ellipse fill="#fdb462" stroke="black" cx="1406" cy="-104" rx="103.07" ry="18"/>
<text text-anchor="middle" x="1406" y="-99.8" font-family="Times,serif" font-size="14.00">ChangePasswdUseCase</text>
</g>
<!-- ChangePasswdUseCase&#45;&gt;UserModule -->
<g id="edge26" class="edge">
<title>ChangePasswdUseCase&#45;&gt;UserModule</title>
<path fill="none" stroke="black" d="M1406,-122.2C1406,-128.03 1406,-133 1406,-133 1406,-133 502,-133 502,-133 502,-133 502,-151.96 502,-151.96"/>
<polygon fill="black" stroke="black" points="498.5,-151.96 502,-161.96 505.5,-151.96 498.5,-151.96"/>
</g>
<!-- DeleteUserUseCase -->
<g id="node24" class="node">
<title>DeleteUserUseCase</title>
<ellipse fill="#fdb462" stroke="black" cx="1196" cy="-104" rx="88.49" ry="18"/>
<text text-anchor="middle" x="1196" y="-99.8" font-family="Times,serif" font-size="14.00">DeleteUserUseCase</text>
</g>
<!-- DeleteUserUseCase&#45;&gt;UserModule -->
<g id="edge27" class="edge">
<title>DeleteUserUseCase&#45;&gt;UserModule</title>
<path fill="none" stroke="black" d="M1196,-122.06C1196,-126.49 1196,-130 1196,-130 1196,-130 496.63,-130 496.63,-130 496.63,-130 496.63,-151.95 496.63,-151.95"/>
<polygon fill="black" stroke="black" points="493.13,-151.95 496.63,-161.95 500.13,-151.95 493.13,-151.95"/>
</g>
<!-- FavoriteRepository -->
<g id="node25" class="node">
<title>FavoriteRepository</title>
<ellipse fill="#fdb462" stroke="black" cx="1004" cy="-104" rx="85.69" ry="18"/>
<text text-anchor="middle" x="1004" y="-99.8" font-family="Times,serif" font-size="14.00">FavoriteRepository</text>
</g>
<!-- FavoriteRepository&#45;&gt;UserModule -->
<g id="edge28" class="edge">
<title>FavoriteRepository&#45;&gt;UserModule</title>
<path fill="none" stroke="black" d="M1004,-122.19C1004,-125.54 1004,-128 1004,-128 1004,-128 491.25,-128 491.25,-128 491.25,-128 491.25,-151.81 491.25,-151.81"/>
<polygon fill="black" stroke="black" points="487.75,-151.81 491.25,-161.81 494.75,-151.81 487.75,-151.81"/>
</g>
<!-- GetFavoritesUseCase -->
<g id="node26" class="node">
<title>GetFavoritesUseCase</title>
<ellipse fill="#fdb462" stroke="black" cx="806" cy="-104" rx="94.9" ry="18"/>
<text text-anchor="middle" x="806" y="-99.8" font-family="Times,serif" font-size="14.00">GetFavoritesUseCase</text>
</g>
<!-- GetFavoritesUseCase&#45;&gt;UserModule -->
<g id="edge29" class="edge">
<title>GetFavoritesUseCase&#45;&gt;UserModule</title>
<path fill="none" stroke="black" d="M806,-122.08C806,-123.85 806,-125 806,-125 806,-125 485.88,-125 485.88,-125 485.88,-125 485.88,-151.99 485.88,-151.99"/>
<polygon fill="black" stroke="black" points="482.38,-151.99 485.88,-161.99 489.38,-151.99 482.38,-151.99"/>
</g>
<!-- GetShoppingCartUseCase -->
<g id="node27" class="node">
<title>GetShoppingCartUseCase</title>
<ellipse fill="#fdb462" stroke="black" cx="2700" cy="-104" rx="112.32" ry="18"/>
<text text-anchor="middle" x="2700" y="-99.8" font-family="Times,serif" font-size="14.00">GetShoppingCartUseCase</text>
</g>
<!-- GetShoppingCartUseCase&#45;&gt;UserModule -->
<g id="edge30" class="edge">
<title>GetShoppingCartUseCase&#45;&gt;UserModule</title>
<path fill="none" stroke="black" d="M2700,-122.04C2700,-134.56 2700,-149 2700,-149 2700,-149 534.24,-149 534.24,-149 534.24,-149 534.24,-151.97 534.24,-151.97"/>
<polygon fill="black" stroke="black" points="530.74,-151.97 534.24,-161.97 537.74,-151.97 530.74,-151.97"/>
</g>
<!-- GetUserUseCase -->
<g id="node28" class="node">
<title>GetUserUseCase</title>
<ellipse fill="#fdb462" stroke="black" cx="2493" cy="-104" rx="76.98" ry="18"/>
<text text-anchor="middle" x="2493" y="-99.8" font-family="Times,serif" font-size="14.00">GetUserUseCase</text>
</g>
<!-- GetUserUseCase&#45;&gt;UserModule -->
<g id="edge31" class="edge">
<title>GetUserUseCase&#45;&gt;UserModule</title>
<path fill="none" stroke="black" d="M2493,-122.06C2493,-133.44 2493,-146 2493,-146 2493,-146 528.87,-146 528.87,-146 528.87,-146 528.87,-151.81 528.87,-151.81"/>
<polygon fill="black" stroke="black" points="525.37,-151.81 528.87,-161.81 532.37,-151.81 525.37,-151.81"/>
</g>
<!-- ShoppingCartRepository -->
<g id="node29" class="node">
<title>ShoppingCartRepository</title>
<ellipse fill="#fdb462" stroke="black" cx="2291" cy="-104" rx="107.13" ry="18"/>
<text text-anchor="middle" x="2291" y="-99.8" font-family="Times,serif" font-size="14.00">ShoppingCartRepository</text>
</g>
<!-- ShoppingCartRepository&#45;&gt;UserModule -->
<g id="edge32" class="edge">
<title>ShoppingCartRepository&#45;&gt;UserModule</title>
<path fill="none" stroke="black" d="M2291,-122.13C2291,-132.71 2291,-144 2291,-144 2291,-144 523.49,-144 523.49,-144 523.49,-144 523.49,-151.58 523.49,-151.58"/>
<polygon fill="black" stroke="black" points="519.99,-151.58 523.49,-161.58 526.99,-151.58 519.99,-151.58"/>
</g>
<!-- ToggleFavoriteUseCase -->
<g id="node30" class="node">
<title>ToggleFavoriteUseCase</title>
<ellipse fill="#fdb462" stroke="black" cx="2062" cy="-104" rx="104.21" ry="18"/>
<text text-anchor="middle" x="2062" y="-99.8" font-family="Times,serif" font-size="14.00">ToggleFavoriteUseCase</text>
</g>
<!-- ToggleFavoriteUseCase&#45;&gt;UserModule -->
<g id="edge33" class="edge">
<title>ToggleFavoriteUseCase&#45;&gt;UserModule</title>
<path fill="none" stroke="black" d="M2062,-122.07C2062,-131.46 2062,-141 2062,-141 2062,-141 518.12,-141 518.12,-141 518.12,-141 518.12,-151.87 518.12,-151.87"/>
<polygon fill="black" stroke="black" points="514.62,-151.87 518.12,-161.87 521.62,-151.87 514.62,-151.87"/>
</g>
<!-- ToggleShoppingCartUseCase -->
<g id="node31" class="node">
<title>ToggleShoppingCartUseCase</title>
<ellipse fill="#fdb462" stroke="black" cx="1814" cy="-104" rx="125.65" ry="18"/>
<text text-anchor="middle" x="1814" y="-99.8" font-family="Times,serif" font-size="14.00">ToggleShoppingCartUseCase</text>
</g>
<!-- ToggleShoppingCartUseCase&#45;&gt;UserModule -->
<g id="edge34" class="edge">
<title>ToggleShoppingCartUseCase&#45;&gt;UserModule</title>
<path fill="none" stroke="black" d="M1814,-122.19C1814,-130.28 1814,-138 1814,-138 1814,-138 512.75,-138 512.75,-138 512.75,-138 512.75,-151.94 512.75,-151.94"/>
<polygon fill="black" stroke="black" points="509.25,-151.94 512.75,-161.94 516.25,-151.94 509.25,-151.94"/>
</g>
<!-- UserRepository -->
<g id="node32" class="node">
<title>UserRepository</title>
<ellipse fill="#fdb462" stroke="black" cx="1599" cy="-104" rx="71.79" ry="18"/>
<text text-anchor="middle" x="1599" y="-99.8" font-family="Times,serif" font-size="14.00">UserRepository</text>
</g>
<!-- UserRepository&#45;&gt;UserModule -->
<g id="edge35" class="edge">
<title>UserRepository&#45;&gt;UserModule</title>
<path fill="none" stroke="black" d="M1599,-122.24C1599,-129.43 1599,-136 1599,-136 1599,-136 507.37,-136 507.37,-136 507.37,-136 507.37,-151.85 507.37,-151.85"/>
<polygon fill="black" stroke="black" points="503.87,-151.85 507.37,-161.85 510.87,-151.85 503.87,-151.85"/>
</g>
</g>
</svg>
