<?xml version="1.0" encoding="UTF-8" standalone="no"?>
<!DOCTYPE svg PUBLIC "-//W3C//DTD SVG 1.1//EN"
 "http://www.w3.org/Graphics/SVG/1.1/DTD/svg11.dtd">
<!-- Generated by graphviz version 2.47.0 (20210316.0004)
 -->
<!-- Title: dependencies Pages: 1 -->
<svg width="742pt" height="211pt"
 viewBox="0.00 0.00 742.00 211.00" xmlns="http://www.w3.org/2000/svg" xmlns:xlink="http://www.w3.org/1999/xlink">
<g id="graph0" class="graph" transform="scale(1 1) rotate(0) translate(4 207)">
<title>dependencies</title>
<polygon fill="white" stroke="transparent" points="-4,4 -4,-207 738,-207 738,4 -4,4"/>
<text text-anchor="start" x="346.01" y="-42.4" font-family="Times-12" font-weight="bold" font-size="14.00">Legend</text>
<polygon fill="#ffffb3" stroke="transparent" points="133,-10 133,-30 153,-30 153,-10 133,-10"/>
<text text-anchor="start" x="156.63" y="-15.4" font-family="Times-12" font-size="14.00"> &#160;Declarations</text>
<polygon fill="#8dd3c7" stroke="transparent" points="246,-10 246,-30 266,-30 266,-10 246,-10"/>
<text text-anchor="start" x="269.73" y="-15.4" font-family="Times-12" font-size="14.00"> &#160;Module</text>
<polygon fill="#80b1d3" stroke="transparent" points="332,-10 332,-30 352,-30 352,-10 332,-10"/>
<text text-anchor="start" x="355.78" y="-15.4" font-family="Times-12" font-size="14.00"> &#160;Bootstrap</text>
<polygon fill="#fdb462" stroke="transparent" points="429,-10 429,-30 449,-30 449,-10 429,-10"/>
<text text-anchor="start" x="452.67" y="-15.4" font-family="Times-12" font-size="14.00"> &#160;Providers</text>
<polygon fill="#fb8072" stroke="transparent" points="525,-10 525,-30 545,-30 545,-10 525,-10"/>
<text text-anchor="start" x="548.73" y="-15.4" font-family="Times-12" font-size="14.00"> &#160;Exports</text>
<g id="clust1" class="cluster">
<title>cluster_ProductsModule</title>
<polygon fill="none" stroke="black" stroke-dasharray="1,5" points="8,-70 8,-195 726,-195 726,-70 8,-70"/>
</g>
<g id="clust6" class="cluster">
<title>cluster_ProductsModule_providers</title>
<polygon fill="none" stroke="black" points="150,-78 150,-130 718,-130 718,-78 150,-78"/>
</g>
<g id="clust3" class="cluster">
<title>cluster_ProductsModule_imports</title>
<polygon fill="none" stroke="black" points="16,-78 16,-130 142,-130 142,-78 16,-78"/>
</g>
<!-- DatabaseModule -->
<g id="node1" class="node">
<title>DatabaseModule</title>
<polygon fill="#8dd3c7" stroke="black" points="134.35,-122 131.35,-126 110.35,-126 107.35,-122 23.65,-122 23.65,-86 134.35,-86 134.35,-122"/>
<text text-anchor="middle" x="79" y="-99.8" font-family="Times,serif" font-size="14.00">DatabaseModule</text>
</g>
<!-- ProductsModule -->
<g id="node2" class="node">
<title>ProductsModule</title>
<polygon fill="#8dd3c7" stroke="black" points="381.04,-187 378.04,-191 357.04,-191 354.04,-187 272.96,-187 272.96,-151 381.04,-151 381.04,-187"/>
<text text-anchor="middle" x="327" y="-164.8" font-family="Times,serif" font-size="14.00">ProductsModule</text>
</g>
<!-- DatabaseModule&#45;&gt;ProductsModule -->
<g id="edge1" class="edge">
<title>DatabaseModule&#45;&gt;ProductsModule</title>
<path fill="none" stroke="black" d="M79,-122.11C79,-141.34 79,-169 79,-169 79,-169 262.88,-169 262.88,-169"/>
<polygon fill="black" stroke="black" points="262.88,-172.5 272.88,-169 262.88,-165.5 262.88,-172.5"/>
</g>
<!-- GetProductsUseCase -->
<g id="node3" class="node">
<title>GetProductsUseCase</title>
<ellipse fill="#fdb462" stroke="black" cx="617" cy="-104" rx="92.61" ry="18"/>
<text text-anchor="middle" x="617" y="-99.8" font-family="Times,serif" font-size="14.00">GetProductsUseCase</text>
</g>
<!-- GetProductsUseCase&#45;&gt;ProductsModule -->
<g id="edge2" class="edge">
<title>GetProductsUseCase&#45;&gt;ProductsModule</title>
<path fill="none" stroke="black" d="M617,-122.11C617,-141.34 617,-169 617,-169 617,-169 391.21,-169 391.21,-169"/>
<polygon fill="black" stroke="black" points="391.21,-165.5 381.21,-169 391.21,-172.5 391.21,-165.5"/>
</g>
<!-- ProductsRepository -->
<g id="node4" class="node">
<title>ProductsRepository</title>
<ellipse fill="#fdb462" stroke="black" cx="419" cy="-104" rx="87.42" ry="18"/>
<text text-anchor="middle" x="419" y="-99.8" font-family="Times,serif" font-size="14.00">ProductsRepository</text>
</g>
<!-- ProductsRepository&#45;&gt;ProductsModule -->
<g id="edge3" class="edge">
<title>ProductsRepository&#45;&gt;ProductsModule</title>
<path fill="none" stroke="black" d="M356.53,-116.84C356.53,-116.84 356.53,-140.52 356.53,-140.52"/>
<polygon fill="black" stroke="black" points="353.03,-140.52 356.53,-150.52 360.03,-140.52 353.03,-140.52"/>
</g>
<!-- ProductsServices -->
<g id="node5" class="node">
<title>ProductsServices</title>
<ellipse fill="#fdb462" stroke="black" cx="236" cy="-104" rx="77.58" ry="18"/>
<text text-anchor="middle" x="236" y="-99.8" font-family="Times,serif" font-size="14.00">ProductsServices</text>
</g>
<!-- ProductsServices&#45;&gt;ProductsModule -->
<g id="edge4" class="edge">
<title>ProductsServices&#45;&gt;ProductsModule</title>
<path fill="none" stroke="black" d="M293.14,-116.23C293.14,-116.23 293.14,-140.68 293.14,-140.68"/>
<polygon fill="black" stroke="black" points="289.64,-140.68 293.14,-150.68 296.64,-140.68 289.64,-140.68"/>
</g>
</g>
</svg>
