<?xml version="1.0" encoding="UTF-8" standalone="no"?>
<!DOCTYPE svg PUBLIC "-//W3C//DTD SVG 1.1//EN"
 "http://www.w3.org/Graphics/SVG/1.1/DTD/svg11.dtd">
<!-- Generated by graphviz version 2.47.0 (20210316.0004)
 -->
<!-- Title: dependencies Pages: 1 -->
<svg width="938pt" height="284pt"
 viewBox="0.00 0.00 938.00 284.00" xmlns="http://www.w3.org/2000/svg" xmlns:xlink="http://www.w3.org/1999/xlink">
<g id="graph0" class="graph" transform="scale(1 1) rotate(0) translate(4 280)">
<title>dependencies</title>
<polygon fill="white" stroke="transparent" points="-4,4 -4,-280 934,-280 934,4 -4,4"/>
<text text-anchor="start" x="444.01" y="-42.4" font-family="Times-12" font-weight="bold" font-size="14.00">Legend</text>
<polygon fill="#ffffb3" stroke="transparent" points="231,-10 231,-30 251,-30 251,-10 231,-10"/>
<text text-anchor="start" x="254.63" y="-15.4" font-family="Times-12" font-size="14.00"> &#160;Declarations</text>
<polygon fill="#8dd3c7" stroke="transparent" points="344,-10 344,-30 364,-30 364,-10 344,-10"/>
<text text-anchor="start" x="367.73" y="-15.4" font-family="Times-12" font-size="14.00"> &#160;Module</text>
<polygon fill="#80b1d3" stroke="transparent" points="430,-10 430,-30 450,-30 450,-10 430,-10"/>
<text text-anchor="start" x="453.78" y="-15.4" font-family="Times-12" font-size="14.00"> &#160;Bootstrap</text>
<polygon fill="#fdb462" stroke="transparent" points="527,-10 527,-30 547,-30 547,-10 527,-10"/>
<text text-anchor="start" x="550.67" y="-15.4" font-family="Times-12" font-size="14.00"> &#160;Providers</text>
<polygon fill="#fb8072" stroke="transparent" points="623,-10 623,-30 643,-30 643,-10 623,-10"/>
<text text-anchor="start" x="646.73" y="-15.4" font-family="Times-12" font-size="14.00"> &#160;Exports</text>
<g id="clust1" class="cluster">
<title>cluster_AppModule</title>
<polygon fill="none" stroke="black" stroke-dasharray="1,5" points="8,-70 8,-268 922,-268 922,-70 8,-70"/>
</g>
<g id="clust3" class="cluster">
<title>cluster_AppModule_imports</title>
<polygon fill="none" stroke="black" points="451,-78 451,-130 914,-130 914,-78 451,-78"/>
</g>
<g id="clust4" class="cluster">
<title>cluster_AppModule_exports</title>
<polygon fill="none" stroke="black" points="471,-208 471,-260 647,-260 647,-208 471,-208"/>
</g>
<g id="clust6" class="cluster">
<title>cluster_AppModule_providers</title>
<polygon fill="none" stroke="black" points="16,-78 16,-130 443,-130 443,-78 16,-78"/>
</g>
<!-- AuthModule -->
<g id="node1" class="node">
<title>AuthModule</title>
<polygon fill="#8dd3c7" stroke="black" points="905.55,-122 902.55,-126 881.55,-126 878.55,-122 818.45,-122 818.45,-86 905.55,-86 905.55,-122"/>
<text text-anchor="middle" x="862" y="-99.8" font-family="Times,serif" font-size="14.00">AuthModule</text>
</g>
<!-- AppModule -->
<g id="node5" class="node">
<title>AppModule</title>
<polygon fill="#8dd3c7" stroke="black" points="600.66,-187 597.66,-191 576.66,-191 573.66,-187 517.34,-187 517.34,-151 600.66,-151 600.66,-187"/>
<text text-anchor="middle" x="559" y="-164.8" font-family="Times,serif" font-size="14.00">AppModule</text>
</g>
<!-- AuthModule&#45;&gt;AppModule -->
<g id="edge1" class="edge">
<title>AuthModule&#45;&gt;AppModule</title>
<path fill="none" stroke="black" d="M862,-122.28C862,-143.32 862,-175 862,-175 862,-175 610.81,-175 610.81,-175"/>
<polygon fill="black" stroke="black" points="610.81,-171.5 600.81,-175 610.81,-178.5 610.81,-171.5"/>
</g>
<!-- DatabaseModule -->
<g id="node2" class="node">
<title>DatabaseModule</title>
<polygon fill="#8dd3c7" stroke="black" points="800.35,-122 797.35,-126 776.35,-126 773.35,-122 689.65,-122 689.65,-86 800.35,-86 800.35,-122"/>
<text text-anchor="middle" x="745" y="-99.8" font-family="Times,serif" font-size="14.00">DatabaseModule</text>
</g>
<!-- DatabaseModule&#45;&gt;AppModule -->
<g id="edge2" class="edge">
<title>DatabaseModule&#45;&gt;AppModule</title>
<path fill="none" stroke="black" d="M745,-122.02C745,-139.37 745,-163 745,-163 745,-163 610.74,-163 610.74,-163"/>
<polygon fill="black" stroke="black" points="610.74,-159.5 600.74,-163 610.74,-166.5 610.74,-159.5"/>
</g>
<!-- ProductsModule -->
<g id="node3" class="node">
<title>ProductsModule</title>
<polygon fill="#8dd3c7" stroke="black" points="671.04,-122 668.04,-126 647.04,-126 644.04,-122 562.96,-122 562.96,-86 671.04,-86 671.04,-122"/>
<text text-anchor="middle" x="617" y="-99.8" font-family="Times,serif" font-size="14.00">ProductsModule</text>
</g>
<!-- ProductsModule&#45;&gt;AppModule -->
<g id="edge3" class="edge">
<title>ProductsModule&#45;&gt;AppModule</title>
<path fill="none" stroke="black" d="M581.78,-122.11C581.78,-122.11 581.78,-140.99 581.78,-140.99"/>
<polygon fill="black" stroke="black" points="578.28,-140.99 581.78,-150.99 585.28,-140.99 578.28,-140.99"/>
</g>
<!-- UserModule -->
<g id="node4" class="node">
<title>UserModule</title>
<polygon fill="#8dd3c7" stroke="black" points="544.98,-122 541.98,-126 520.98,-126 517.98,-122 459.02,-122 459.02,-86 544.98,-86 544.98,-122"/>
<text text-anchor="middle" x="502" y="-99.8" font-family="Times,serif" font-size="14.00">UserModule</text>
</g>
<!-- UserModule&#45;&gt;AppModule -->
<g id="edge4" class="edge">
<title>UserModule&#45;&gt;AppModule</title>
<path fill="none" stroke="black" d="M531.08,-122.11C531.08,-122.11 531.08,-140.99 531.08,-140.99"/>
<polygon fill="black" stroke="black" points="527.58,-140.99 531.08,-150.99 534.58,-140.99 527.58,-140.99"/>
</g>
<!-- PopulateProductsService  -->
<g id="node6" class="node">
<title>PopulateProductsService </title>
<polygon fill="#fb8072" stroke="black" points="638.96,-252 479.04,-252 479.04,-216 638.96,-216 638.96,-252"/>
<text text-anchor="middle" x="559" y="-229.8" font-family="Times,serif" font-size="14.00">PopulateProductsService </text>
</g>
<!-- AppModule&#45;&gt;PopulateProductsService  -->
<g id="edge5" class="edge">
<title>AppModule&#45;&gt;PopulateProductsService </title>
<path fill="none" stroke="black" stroke-dasharray="5,2" d="M559,-187.11C559,-187.11 559,-205.99 559,-205.99"/>
<polygon fill="black" stroke="black" points="555.5,-205.99 559,-215.99 562.5,-205.99 555.5,-205.99"/>
</g>
<!-- PopulateProductsService -->
<g id="node7" class="node">
<title>PopulateProductsService</title>
<ellipse fill="#fdb462" stroke="black" cx="327" cy="-104" rx="107.66" ry="18"/>
<text text-anchor="middle" x="327" y="-99.8" font-family="Times,serif" font-size="14.00">PopulateProductsService</text>
</g>
<!-- PopulateProductsService&#45;&gt;AppModule -->
<g id="edge6" class="edge">
<title>PopulateProductsService&#45;&gt;AppModule</title>
<path fill="none" stroke="black" d="M327,-122.02C327,-139.37 327,-163 327,-163 327,-163 507.26,-163 507.26,-163"/>
<polygon fill="black" stroke="black" points="507.26,-166.5 517.26,-163 507.26,-159.5 507.26,-166.5"/>
</g>
<!-- RmUnverifiedUsers -->
<g id="node8" class="node">
<title>RmUnverifiedUsers</title>
<ellipse fill="#fdb462" stroke="black" cx="113" cy="-104" rx="88.6" ry="18"/>
<text text-anchor="middle" x="113" y="-99.8" font-family="Times,serif" font-size="14.00">RmUnverifiedUsers</text>
</g>
<!-- RmUnverifiedUsers&#45;&gt;AppModule -->
<g id="edge7" class="edge">
<title>RmUnverifiedUsers&#45;&gt;AppModule</title>
<path fill="none" stroke="black" d="M113,-122.28C113,-143.32 113,-175 113,-175 113,-175 507.04,-175 507.04,-175"/>
<polygon fill="black" stroke="black" points="507.04,-178.5 517.04,-175 507.04,-171.5 507.04,-178.5"/>
</g>
</g>
</svg>
